<svg width="126" height="107" viewBox="0 0 126 107" fill="none" xmlns="http://www.w3.org/2000/svg">
<path fill-rule="evenodd" clip-rule="evenodd" d="M5 84V0H89V84H5ZM15 10H79V74H15V10Z" fill="#18A0FB"/>
<path d="M58.9739 69.491H53.3029V38.91L41.2719 69.226H36.6079L24.1529 38.91V69.491H18.4289V29.953H26.0609L38.8869 61.382L51.3419 29.953H58.9739V69.491ZM80.8496 44.899C78.4469 44.899 76.5389 45.853 75.1256 47.761C73.7829 49.6337 73.1116 52.054 73.1116 55.022C73.1116 57.99 73.7829 60.4103 75.1256 62.283C76.5389 64.191 78.4469 65.145 80.8496 65.145C83.2523 65.145 85.1426 64.191 86.5206 62.283C87.8986 60.4457 88.5876 58.0253 88.5876 55.022C88.5876 52.054 87.8986 49.6337 86.5206 47.761C85.1426 45.853 83.2523 44.899 80.8496 44.899ZM80.8496 39.917C85.2309 39.917 88.6406 41.4893 91.0786 44.634C93.2693 47.4253 94.3646 50.888 94.3646 55.022C94.3646 59.156 93.2693 62.6187 91.0786 65.41C88.6406 68.5547 85.2309 70.127 80.8496 70.127C76.4329 70.127 73.0056 68.5547 70.5676 65.41C68.4123 62.6893 67.3346 59.2267 67.3346 55.022C67.3346 50.8173 68.4123 47.3547 70.5676 44.634C73.0056 41.4893 76.4329 39.917 80.8496 39.917ZM108.327 72.83H101.755V66.523H108.327V72.83Z" fill="#4D4D4D"/>
</svg>
